<svg width="24" height="24" viewBox="0 0 24 24" fill="none" xmlns="http://www.w3.org/2000/svg">
<g clip-path="url(#clip0_135_924)">
<path d="M22.1619 5.65593C21.3985 5.99362 20.5889 6.2154 19.7599 6.31393C20.6337 5.79136 21.2876 4.96894 21.5999 3.99993C20.7799 4.48793 19.8809 4.82993 18.9439 5.01493C18.3145 4.34151 17.4803 3.89489 16.5709 3.74451C15.6615 3.59413 14.7279 3.74842 13.9152 4.18338C13.1025 4.61834 12.4563 5.30961 12.077 6.14972C11.6978 6.98983 11.6067 7.93171 11.8179 8.82893C10.155 8.74558 8.52826 8.31345 7.04322 7.56059C5.55817 6.80773 4.24806 5.75097 3.19793 4.45893C2.82622 5.09738 2.63089 5.82315 2.63193 6.56193C2.63193 8.01193 3.36993 9.29293 4.49193 10.0429C3.82794 10.022 3.17856 9.84271 2.59793 9.51993V9.57193C2.59813 10.5376 2.9323 11.4735 3.54378 12.221C4.15526 12.9684 5.00641 13.4814 5.95293 13.6729C5.33654 13.84 4.69024 13.8646 4.06293 13.7449C4.3298 14.5762 4.84994 15.3031 5.55052 15.824C6.25111 16.3449 7.09706 16.6337 7.96993 16.6499C7.10241 17.3313 6.10911 17.8349 5.04681 18.1321C3.98451 18.4293 2.87406 18.5142 1.77893 18.3819C3.69063 19.6114 5.91603 20.264 8.18893 20.2619C15.8819 20.2619 20.0889 13.8889 20.0889 8.36193C20.0889 8.18193 20.0839 7.99993 20.0759 7.82193C20.8948 7.23009 21.6015 6.49695 22.1629 5.65693L22.1619 5.65593Z" fill="#232233"/>
</g>
<defs>
<clipPath id="clip0_135_924">
<rect width="24" height="24" fill="white"/>
</clipPath>
</defs>
</svg>
