<svg width="35" height="35" viewBox="0 0 35 35" fill="none" xmlns="http://www.w3.org/2000/svg">
<g clip-path="url(#clip0_135_710)">
<path d="M2.91668 13.1252H7.29168V30.6252H2.91668C2.5299 30.6252 2.15897 30.4715 1.88548 30.198C1.61199 29.9245 1.45834 29.5536 1.45834 29.1668V14.5835C1.45834 14.1967 1.61199 13.8258 1.88548 13.5523C2.15897 13.2788 2.5299 13.1252 2.91668 13.1252ZM10.6356 11.2395L19.969 1.9062C20.093 1.7818 20.2578 1.70636 20.433 1.69377C20.6083 1.68118 20.7822 1.73227 20.9227 1.83766L22.1667 2.771C22.5122 3.03035 22.7731 3.3862 22.9166 3.79366C23.0602 4.20112 23.0798 4.64196 22.9731 5.06058L21.2917 11.6668H30.625C31.3986 11.6668 32.1404 11.9741 32.6874 12.5211C33.2344 13.0681 33.5417 13.8099 33.5417 14.5835V17.6518C33.5421 18.033 33.4678 18.4105 33.3229 18.7631L28.8094 29.7225C28.6993 29.9896 28.5123 30.2181 28.2721 30.3788C28.0319 30.5395 27.7494 30.6253 27.4604 30.6252H11.6667C11.2799 30.6252 10.909 30.4715 10.6355 30.198C10.362 29.9245 10.2083 29.5536 10.2083 29.1668V12.2706C10.2084 11.8838 10.3621 11.513 10.6356 11.2395Z" fill="white"/>
</g>
<defs>
<clipPath id="clip0_135_710">
<rect width="35" height="35" fill="white"/>
</clipPath>
</defs>
</svg>
