<svg width="24" height="24" viewBox="0 0 24 24" fill="none" xmlns="http://www.w3.org/2000/svg">
<g clip-path="url(#clip0_85_0)">
<path d="M3 12.9996H9V10.9996H3V1.84562C3.00001 1.75873 3.02267 1.67335 3.06573 1.59789C3.1088 1.52242 3.17078 1.45949 3.24558 1.41527C3.32037 1.37106 3.4054 1.34711 3.49227 1.34576C3.57915 1.34442 3.66487 1.36574 3.741 1.40762L22.203 11.5616C22.2814 11.6048 22.3468 11.6682 22.3923 11.7452C22.4378 11.8223 22.4618 11.9101 22.4618 11.9996C22.4618 12.0891 22.4378 12.177 22.3923 12.254C22.3468 12.331 22.2814 12.3945 22.203 12.4376L3.741 22.5916C3.66487 22.6335 3.57915 22.6548 3.49227 22.6535C3.4054 22.6521 3.32037 22.6282 3.24558 22.584C3.17078 22.5397 3.1088 22.4768 3.06573 22.4013C3.02267 22.3259 3.00001 22.2405 3 22.1536V12.9996Z" fill="white"/>
</g>
<defs>
<clipPath id="clip0_85_0">
<rect width="24" height="24" fill="white"/>
</clipPath>
</defs>
</svg>
