<svg width="40" height="40" viewBox="0 0 40 40" fill="none" xmlns="http://www.w3.org/2000/svg">
<g clip-path="url(#clip0_75_75)">
<path d="M5.00001 5H35C35.442 5 35.866 5.17559 36.1785 5.48816C36.4911 5.80072 36.6667 6.22464 36.6667 6.66667V33.3333C36.6667 33.7754 36.4911 34.1993 36.1785 34.5118C35.866 34.8244 35.442 35 35 35H5.00001C4.55798 35 4.13406 34.8244 3.8215 34.5118C3.50894 34.1993 3.33334 33.7754 3.33334 33.3333V6.66667C3.33334 6.22464 3.50894 5.80072 3.8215 5.48816C4.13406 5.17559 4.55798 5 5.00001 5V5ZM20.1 19.4717L9.41334 10.3967L7.25501 12.9367L20.1217 23.8617L32.7567 12.9283L30.5767 10.4067L20.1017 19.4717H20.1Z" fill="white"/>
</g>
<defs>
<clipPath id="clip0_75_75">
<rect width="40" height="40" fill="white"/>
</clipPath>
</defs>
</svg>
