<svg width="50" height="50" viewBox="0 0 50 50" fill="none" xmlns="http://www.w3.org/2000/svg">
<path d="M35.5184 0H14.4813C12.468 0 10.8427 1.63253 10.8427 3.64223V46.3614C10.8427 48.3693 12.468 50 14.4813 50H35.5184C37.5281 50 39.157 48.3693 39.157 46.3614V3.64223C39.157 1.63253 37.5281 0 35.5184 0ZM19.8089 2.21194H30.1945C30.4568 2.21194 30.67 2.60367 30.67 3.08833C30.67 3.57299 30.4568 3.96655 30.1945 3.96655H19.8089C19.5447 3.96655 19.3352 3.57299 19.3352 3.08833C19.3352 2.60367 19.5447 2.21194 19.8089 2.21194ZM25.0017 46.4051C23.7208 46.4051 22.6786 45.363 22.6786 44.0802C22.6786 42.7975 23.7208 41.759 25.0017 41.759C26.2789 41.759 27.3211 42.7975 27.3211 44.0802C27.3211 45.363 26.2789 46.4051 25.0017 46.4051ZM36.4313 38.4447H13.5703V6.14569H36.4313V38.4447Z" fill="white"/>
</svg>
